<svg width="201" height="38" viewBox="0 0 201 38" fill="none" xmlns="http://www.w3.org/2000/svg">
<mask id="mask0_401_1244" style="mask-type:alpha" maskUnits="userSpaceOnUse" x="0" y="4" width="28" height="30">
<path d="M8.89428 30.3647C8.89428 32.366 7.27197 33.9883 5.27075 33.9883C3.26953 33.9883 1.64722 32.366 1.64722 30.3647C1.64722 28.3635 3.26953 26.7412 5.27075 26.7412C7.27197 26.7412 8.89428 28.3635 8.89428 30.3647Z" fill="#C4C4C4"/>
<path d="M26.3533 30.3647C26.3533 32.366 24.731 33.9883 22.7297 33.9883C20.7285 33.9883 19.1062 32.366 19.1062 30.3647C19.1062 28.3635 20.7285 26.7412 22.7297 26.7412C24.731 26.7412 26.3533 28.3635 26.3533 30.3647Z" fill="#C4C4C4"/>
<path fill-rule="evenodd" clip-rule="evenodd" d="M25.1913 27.7058C25.4382 27.9345 25.4094 28.3209 25.1508 28.5363C23.7802 29.6779 22.0174 30.3647 20.0941 30.3647H19.7649C19.401 30.3647 19.0998 30.0671 19.1652 29.7091C19.4737 28.0209 20.9522 26.7412 22.7296 26.7412C23.68 26.7412 24.545 27.1071 25.1913 27.7058ZM27.0987 26.1282C26.8986 26.5093 26.3844 26.543 26.0504 26.2717C25.144 25.5354 23.9883 25.0942 22.7296 25.0942C20.0414 25.0942 17.8233 27.1066 17.4996 29.7072C17.4547 30.0682 17.164 30.3647 16.8002 30.3647H11.2C10.8361 30.3647 10.5455 30.0682 10.5006 29.7072C10.1769 27.1066 7.95876 25.0942 5.27059 25.0942C4.0118 25.0942 2.85608 25.5354 1.94969 26.2718C1.61563 26.5431 1.10145 26.5094 0.901402 26.1283C0.325709 25.0317 0 23.7833 0 22.4588V20.8116C0 20.4478 0.294965 20.1528 0.658823 20.1528H27.3412C27.705 20.1528 28 20.4478 28 20.8116V22.4588C28 23.7832 27.6743 25.0316 27.0987 26.1282ZM28 17.8469C28 18.2108 27.705 18.5057 27.3412 18.5057H0.658824C0.294965 18.5057 0 18.2108 0 17.8469V13.894C0 13.5302 0.294965 13.2352 0.658823 13.2352H27.3412C27.705 13.2352 28 13.5302 28 13.894V17.8469ZM7.90588 4.01172C3.883 4.01172 0.561907 7.0164 0.0643695 10.904C0.0168356 11.2754 0.318678 11.5881 0.693122 11.5881H27.3069C27.6813 11.5881 27.9832 11.2754 27.9356 10.904C27.4381 7.0164 24.117 4.01172 20.0941 4.01172H7.90588ZM5.27059 26.7412C7.04795 26.7412 8.52644 28.0209 8.83496 29.7091C8.90037 30.0671 8.59914 30.3647 8.23528 30.3647H7.90588C5.98268 30.3647 4.21987 29.6779 2.84928 28.5364C2.59074 28.321 2.56193 27.9345 2.80878 27.7059C3.45509 27.1072 4.3201 26.7412 5.27059 26.7412Z" fill="#C4C4C4"/>
</mask>
<g mask="url(#mask0_401_1244)">
<rect x="-1.64722" y="1.70605" width="33.6" height="10.8706" fill="url(#paint0_linear_401_1244)"/>
<rect x="-1.64722" y="19.4941" width="33.6" height="16.4706" fill="#FFA833"/>
<rect x="-1.64722" y="12.5767" width="33.6" height="7.24706" rx="3.62353" fill="#F17228"/>
<rect x="-23.0586" y="26.7412" width="31.9529" height="7.24706" fill="#F58D00"/>
<rect x="19.1062" y="26.7412" width="31.9529" height="7.24706" fill="#F58D00"/>
<ellipse cx="8.11249" cy="6.82316" rx="1" ry="0.5" transform="rotate(-20.8548 8.11249 6.82316)" fill="white"/>
<ellipse cx="14" cy="6.5" rx="1" ry="0.5" fill="white"/>
<ellipse cx="19.1176" cy="6.91225" rx="1" ry="0.5" transform="rotate(28.1155 19.1176 6.91225)" fill="white"/>
</g>
<path d="M40.62 30.6167V27.8479L49.5797 14.1905H41.4599V10.3329H55.2106V13.1017L46.2509 26.759H55.304V30.6167H40.62ZM64.087 30.99C62.6145 30.99 61.2871 30.6685 60.1049 30.0256C58.9227 29.3827 57.9894 28.4597 57.305 27.2568C56.6206 26.0539 56.2784 24.6021 56.2784 22.9014C56.2784 21.2214 56.6206 19.78 57.305 18.5771C58.0102 17.3741 58.9227 16.4512 60.0427 15.8082C61.1627 15.1446 62.3345 14.8127 63.5581 14.8127C65.0307 14.8127 66.244 15.1446 67.198 15.8082C68.1728 16.4512 68.8987 17.3326 69.3758 18.4526C69.8735 19.5518 70.1224 20.8066 70.1224 22.2169C70.1224 22.611 70.1017 23.0051 70.0602 23.3991C70.0187 23.7725 69.9772 24.0524 69.9357 24.2391H60.696C60.9034 25.3591 61.3701 26.1887 62.096 26.7279C62.8219 27.2464 63.693 27.5057 64.7092 27.5057C65.8085 27.5057 66.918 27.1635 68.038 26.479L69.5624 29.2479C68.7743 29.7871 67.8928 30.2123 66.918 30.5234C65.9433 30.8345 64.9996 30.99 64.087 30.99ZM60.6649 21.2214H66.2336C66.2336 20.3711 66.0262 19.6763 65.6114 19.137C65.2174 18.5771 64.564 18.2971 63.6515 18.2971C62.9463 18.2971 62.3137 18.5459 61.7538 19.0437C61.1938 19.5207 60.8308 20.2466 60.6649 21.2214ZM72.5048 30.6167V15.186H76.238L76.5491 17.8926H76.6735C77.2335 16.8556 77.9076 16.0882 78.6957 15.5905C79.4838 15.072 80.2719 14.8127 81.0601 14.8127C81.4956 14.8127 81.8586 14.8438 82.1489 14.9061C82.4393 14.9475 82.6882 15.0201 82.8956 15.1238L82.1489 19.0748C81.8793 18.9919 81.6097 18.9296 81.3401 18.8882C81.0912 18.8467 80.8008 18.8259 80.469 18.8259C79.8882 18.8259 79.2764 19.0437 78.6335 19.4792C78.0113 19.8941 77.4928 20.62 77.078 21.657V30.6167H72.5048ZM90.4451 30.99C89.1385 30.99 87.9045 30.6789 86.743 30.0567C85.6023 29.4138 84.6794 28.4908 83.9742 27.2879C83.269 26.0642 82.9165 24.6021 82.9165 22.9014C82.9165 21.1799 83.269 19.7178 83.9742 18.5148C84.6794 17.3119 85.6023 16.3993 86.743 15.7771C87.9045 15.1342 89.1385 14.8127 90.4451 14.8127C91.7518 14.8127 92.9754 15.1342 94.1161 15.7771C95.2568 16.3993 96.1798 17.3119 96.8849 18.5148C97.5901 19.7178 97.9427 21.1799 97.9427 22.9014C97.9427 24.6021 97.5901 26.0642 96.8849 27.2879C96.1798 28.4908 95.2568 29.4138 94.1161 30.0567C92.9754 30.6789 91.7518 30.99 90.4451 30.99ZM90.4451 27.2879C91.3784 27.2879 92.0836 26.8938 92.5606 26.1057C93.0376 25.2969 93.2762 24.2287 93.2762 22.9014C93.2762 21.5533 93.0376 20.4851 92.5606 19.697C92.0836 18.9089 91.3784 18.5148 90.4451 18.5148C89.4911 18.5148 88.7756 18.9089 88.2985 19.697C87.8422 20.4851 87.6141 21.5533 87.6141 22.9014C87.6141 24.2287 87.8422 25.2969 88.2985 26.1057C88.7756 26.8938 89.4911 27.2879 90.4451 27.2879Z" fill="#F17228"/>
<path d="M102.702 30.6167V10.3329H107.275V18.1415H114.275V10.3329H118.879V30.6167H114.275V22.1547H107.275V30.6167H102.702ZM127.305 30.99C125.625 30.99 124.401 30.4404 123.634 29.3412C122.887 28.2212 122.514 26.6968 122.514 24.768V15.186H127.087V24.1769C127.087 25.2761 127.242 26.0435 127.554 26.479C127.865 26.8938 128.352 27.1012 129.016 27.1012C129.596 27.1012 130.084 26.9664 130.478 26.6968C130.872 26.4272 131.297 25.9916 131.753 25.3902V15.186H136.327V30.6167H132.593L132.251 28.4701H132.158C131.515 29.2375 130.81 29.8493 130.042 30.3056C129.275 30.7619 128.362 30.99 127.305 30.99ZM139.729 30.6167V15.186H143.462L143.773 17.146H143.898C144.561 16.5238 145.287 15.9845 146.075 15.5283C146.884 15.0512 147.807 14.8127 148.844 14.8127C150.524 14.8127 151.737 15.3727 152.484 16.4927C153.251 17.5919 153.635 19.1059 153.635 21.0348V30.6167H149.062V21.6259C149.062 20.5059 148.906 19.7385 148.595 19.3237C148.305 18.9089 147.828 18.7015 147.164 18.7015C146.583 18.7015 146.086 18.8363 145.671 19.1059C145.256 19.3548 144.8 19.7178 144.302 20.1948V30.6167H139.729ZM162.416 37.181C161.214 37.181 160.125 37.0461 159.15 36.7765C158.175 36.5069 157.397 36.0817 156.817 35.501C156.236 34.9203 155.946 34.1736 155.946 33.2611C155.946 32.0167 156.682 30.9797 158.154 30.15V30.0256C157.76 29.756 157.418 29.4138 157.128 28.999C156.858 28.5842 156.723 28.0553 156.723 27.4123C156.723 26.8524 156.889 26.3131 157.221 25.7946C157.553 25.2761 157.968 24.8509 158.465 24.5191V24.3947C157.926 24.0213 157.439 23.4821 157.003 22.7769C156.588 22.0718 156.381 21.2733 156.381 20.3814C156.381 19.137 156.682 18.1104 157.283 17.3015C157.885 16.4719 158.673 15.8497 159.648 15.4349C160.622 15.0201 161.659 14.8127 162.759 14.8127C163.671 14.8127 164.47 14.9372 165.154 15.186H170.785V18.5148H168.327C168.473 18.743 168.587 19.0333 168.67 19.3859C168.773 19.7385 168.825 20.1222 168.825 20.537C168.825 21.7192 168.556 22.694 168.016 23.4614C167.477 24.2287 166.751 24.7991 165.839 25.1724C164.926 25.5457 163.899 25.7324 162.759 25.7324C162.157 25.7324 161.535 25.6287 160.892 25.4213C160.519 25.7324 160.332 26.1161 160.332 26.5724C160.332 26.9664 160.508 27.2568 160.861 27.4435C161.214 27.6301 161.815 27.7235 162.665 27.7235H165.154C167.062 27.7235 168.514 28.0346 169.51 28.6568C170.526 29.2582 171.034 30.2537 171.034 31.6433C171.034 32.7011 170.681 33.6448 169.976 34.4744C169.271 35.3247 168.276 35.9884 166.99 36.4654C165.704 36.9424 164.179 37.181 162.416 37.181ZM162.759 22.9636C163.36 22.9636 163.858 22.7458 164.252 22.3103C164.667 21.8747 164.874 21.2318 164.874 20.3814C164.874 19.5726 164.667 18.9607 164.252 18.5459C163.858 18.1104 163.36 17.8926 162.759 17.8926C162.157 17.8926 161.649 18.1 161.234 18.5148C160.84 18.9296 160.643 19.5518 160.643 20.3814C160.643 21.2318 160.84 21.8747 161.234 22.3103C161.649 22.7458 162.157 22.9636 162.759 22.9636ZM163.132 34.3188C164.169 34.3188 165.019 34.1322 165.683 33.7588C166.347 33.3855 166.679 32.9396 166.679 32.4211C166.679 31.9441 166.471 31.6226 166.056 31.4567C165.662 31.2908 165.082 31.2078 164.314 31.2078H162.728C162.209 31.2078 161.773 31.1871 161.421 31.1456C161.089 31.1248 160.799 31.0834 160.55 31.0211C159.99 31.5189 159.71 32.027 159.71 32.5455C159.71 33.1263 160.021 33.5618 160.643 33.8522C161.286 34.1633 162.116 34.3188 163.132 34.3188ZM179.266 30.99C177.793 30.99 176.466 30.6685 175.284 30.0256C174.101 29.3827 173.168 28.4597 172.484 27.2568C171.799 26.0539 171.457 24.6021 171.457 22.9014C171.457 21.2214 171.799 19.78 172.484 18.5771C173.189 17.3741 174.101 16.4512 175.221 15.8082C176.341 15.1446 177.513 14.8127 178.737 14.8127C180.209 14.8127 181.423 15.1446 182.377 15.8082C183.352 16.4512 184.077 17.3326 184.555 18.4526C185.052 19.5518 185.301 20.8066 185.301 22.2169C185.301 22.611 185.28 23.0051 185.239 23.3991C185.197 23.7725 185.156 24.0524 185.114 24.2391H175.875C176.082 25.3591 176.549 26.1887 177.275 26.7279C178.001 27.2464 178.872 27.5057 179.888 27.5057C180.987 27.5057 182.097 27.1635 183.217 26.479L184.741 29.2479C183.953 29.7871 183.072 30.2123 182.097 30.5234C181.122 30.8345 180.178 30.99 179.266 30.99ZM175.844 21.2214H181.412C181.412 20.3711 181.205 19.6763 180.79 19.137C180.396 18.5771 179.743 18.2971 178.83 18.2971C178.125 18.2971 177.492 18.5459 176.933 19.0437C176.373 19.5207 176.01 20.2466 175.844 21.2214ZM187.839 30.6167V15.186H191.572L191.883 17.8926H192.008C192.568 16.8556 193.242 16.0882 194.03 15.5905C194.818 15.072 195.606 14.8127 196.394 14.8127C196.83 14.8127 197.193 14.8438 197.483 14.9061C197.774 14.9475 198.022 15.0201 198.23 15.1238L197.483 19.0748C197.214 18.9919 196.944 18.9296 196.674 18.8882C196.425 18.8467 196.135 18.8259 195.803 18.8259C195.223 18.8259 194.611 19.0437 193.968 19.4792C193.346 19.8941 192.827 20.62 192.412 21.657V30.6167H187.839Z" fill="#FFB30E"/>
<defs>
<linearGradient id="paint0_linear_401_1244" x1="14.9999" y1="3.5" x2="14.9999" y2="21" gradientUnits="userSpaceOnUse">
<stop stop-color="#FFD16D"/>
<stop offset="1" stop-color="#FF7A00"/>
</linearGradient>
</defs>
</svg>
